%TF.GenerationSoftware,KiCad,Pcbnew,5.1.5*%
%TF.CreationDate,2020-01-11T17:38:17+01:00*%
%TF.ProjectId,can_breakout_pcb,63616e5f-6272-4656-916b-6f75745f7063,rev?*%
%TF.SameCoordinates,Original*%
%TF.FileFunction,Legend,Bot*%
%TF.FilePolarity,Positive*%
%FSLAX46Y46*%
G04 Gerber Fmt 4.6, Leading zero omitted, Abs format (unit mm)*
G04 Created by KiCad (PCBNEW 5.1.5) date 2020-01-11 17:38:17*
%MOMM*%
%LPD*%
G04 APERTURE LIST*
%ADD10C,0.150000*%
%ADD11C,0.200000*%
G04 APERTURE END LIST*
D10*
X224250000Y-78000000D02*
X238375000Y-78000000D01*
X224250000Y-60875000D02*
X224250000Y-78000000D01*
X238375000Y-60875000D02*
X224250000Y-60875000D01*
X237440476Y-62502380D02*
X237440476Y-61502380D01*
X237202380Y-61502380D01*
X237059523Y-61550000D01*
X236964285Y-61645238D01*
X236916666Y-61740476D01*
X236869047Y-61930952D01*
X236869047Y-62073809D01*
X236916666Y-62264285D01*
X236964285Y-62359523D01*
X237059523Y-62454761D01*
X237202380Y-62502380D01*
X237440476Y-62502380D01*
X236059523Y-62454761D02*
X236154761Y-62502380D01*
X236345238Y-62502380D01*
X236440476Y-62454761D01*
X236488095Y-62359523D01*
X236488095Y-61978571D01*
X236440476Y-61883333D01*
X236345238Y-61835714D01*
X236154761Y-61835714D01*
X236059523Y-61883333D01*
X236011904Y-61978571D01*
X236011904Y-62073809D01*
X236488095Y-62169047D01*
X235583333Y-62502380D02*
X235583333Y-61502380D01*
X235583333Y-61883333D02*
X235488095Y-61835714D01*
X235297619Y-61835714D01*
X235202380Y-61883333D01*
X235154761Y-61930952D01*
X235107142Y-62026190D01*
X235107142Y-62311904D01*
X235154761Y-62407142D01*
X235202380Y-62454761D01*
X235297619Y-62502380D01*
X235488095Y-62502380D01*
X235583333Y-62454761D01*
X234250000Y-61835714D02*
X234250000Y-62502380D01*
X234678571Y-61835714D02*
X234678571Y-62359523D01*
X234630952Y-62454761D01*
X234535714Y-62502380D01*
X234392857Y-62502380D01*
X234297619Y-62454761D01*
X234250000Y-62407142D01*
X233345238Y-61835714D02*
X233345238Y-62645238D01*
X233392857Y-62740476D01*
X233440476Y-62788095D01*
X233535714Y-62835714D01*
X233678571Y-62835714D01*
X233773809Y-62788095D01*
X233345238Y-62454761D02*
X233440476Y-62502380D01*
X233630952Y-62502380D01*
X233726190Y-62454761D01*
X233773809Y-62407142D01*
X233821428Y-62311904D01*
X233821428Y-62026190D01*
X233773809Y-61930952D01*
X233726190Y-61883333D01*
X233630952Y-61835714D01*
X233440476Y-61835714D01*
X233345238Y-61883333D01*
X231535714Y-62407142D02*
X231583333Y-62454761D01*
X231726190Y-62502380D01*
X231821428Y-62502380D01*
X231964285Y-62454761D01*
X232059523Y-62359523D01*
X232107142Y-62264285D01*
X232154761Y-62073809D01*
X232154761Y-61930952D01*
X232107142Y-61740476D01*
X232059523Y-61645238D01*
X231964285Y-61550000D01*
X231821428Y-61502380D01*
X231726190Y-61502380D01*
X231583333Y-61550000D01*
X231535714Y-61597619D01*
X230964285Y-62502380D02*
X231059523Y-62454761D01*
X231107142Y-62407142D01*
X231154761Y-62311904D01*
X231154761Y-62026190D01*
X231107142Y-61930952D01*
X231059523Y-61883333D01*
X230964285Y-61835714D01*
X230821428Y-61835714D01*
X230726190Y-61883333D01*
X230678571Y-61930952D01*
X230630952Y-62026190D01*
X230630952Y-62311904D01*
X230678571Y-62407142D01*
X230726190Y-62454761D01*
X230821428Y-62502380D01*
X230964285Y-62502380D01*
X230202380Y-61835714D02*
X230202380Y-62502380D01*
X230202380Y-61930952D02*
X230154761Y-61883333D01*
X230059523Y-61835714D01*
X229916666Y-61835714D01*
X229821428Y-61883333D01*
X229773809Y-61978571D01*
X229773809Y-62502380D01*
X229297619Y-61835714D02*
X229297619Y-62502380D01*
X229297619Y-61930952D02*
X229250000Y-61883333D01*
X229154761Y-61835714D01*
X229011904Y-61835714D01*
X228916666Y-61883333D01*
X228869047Y-61978571D01*
X228869047Y-62502380D01*
X228011904Y-62454761D02*
X228107142Y-62502380D01*
X228297619Y-62502380D01*
X228392857Y-62454761D01*
X228440476Y-62359523D01*
X228440476Y-61978571D01*
X228392857Y-61883333D01*
X228297619Y-61835714D01*
X228107142Y-61835714D01*
X228011904Y-61883333D01*
X227964285Y-61978571D01*
X227964285Y-62073809D01*
X228440476Y-62169047D01*
X227107142Y-62454761D02*
X227202380Y-62502380D01*
X227392857Y-62502380D01*
X227488095Y-62454761D01*
X227535714Y-62407142D01*
X227583333Y-62311904D01*
X227583333Y-62026190D01*
X227535714Y-61930952D01*
X227488095Y-61883333D01*
X227392857Y-61835714D01*
X227202380Y-61835714D01*
X227107142Y-61883333D01*
X226821428Y-61835714D02*
X226440476Y-61835714D01*
X226678571Y-61502380D02*
X226678571Y-62359523D01*
X226630952Y-62454761D01*
X226535714Y-62502380D01*
X226440476Y-62502380D01*
X225964285Y-62502380D02*
X226059523Y-62454761D01*
X226107142Y-62407142D01*
X226154761Y-62311904D01*
X226154761Y-62026190D01*
X226107142Y-61930952D01*
X226059523Y-61883333D01*
X225964285Y-61835714D01*
X225821428Y-61835714D01*
X225726190Y-61883333D01*
X225678571Y-61930952D01*
X225630952Y-62026190D01*
X225630952Y-62311904D01*
X225678571Y-62407142D01*
X225726190Y-62454761D01*
X225821428Y-62502380D01*
X225964285Y-62502380D01*
X225202380Y-62502380D02*
X225202380Y-61835714D01*
X225202380Y-62026190D02*
X225154761Y-61930952D01*
X225107142Y-61883333D01*
X225011904Y-61835714D01*
X224916666Y-61835714D01*
X233392857Y-64152380D02*
X233392857Y-63152380D01*
X233011904Y-63152380D01*
X232916666Y-63200000D01*
X232869047Y-63247619D01*
X232821428Y-63342857D01*
X232821428Y-63485714D01*
X232869047Y-63580952D01*
X232916666Y-63628571D01*
X233011904Y-63676190D01*
X233392857Y-63676190D01*
X232392857Y-64152380D02*
X232392857Y-63485714D01*
X232392857Y-63152380D02*
X232440476Y-63200000D01*
X232392857Y-63247619D01*
X232345238Y-63200000D01*
X232392857Y-63152380D01*
X232392857Y-63247619D01*
X231916666Y-63485714D02*
X231916666Y-64152380D01*
X231916666Y-63580952D02*
X231869047Y-63533333D01*
X231773809Y-63485714D01*
X231630952Y-63485714D01*
X231535714Y-63533333D01*
X231488095Y-63628571D01*
X231488095Y-64152380D01*
X230869047Y-64152380D02*
X230964285Y-64104761D01*
X231011904Y-64057142D01*
X231059523Y-63961904D01*
X231059523Y-63676190D01*
X231011904Y-63580952D01*
X230964285Y-63533333D01*
X230869047Y-63485714D01*
X230726190Y-63485714D01*
X230630952Y-63533333D01*
X230583333Y-63580952D01*
X230535714Y-63676190D01*
X230535714Y-63961904D01*
X230583333Y-64057142D01*
X230630952Y-64104761D01*
X230726190Y-64152380D01*
X230869047Y-64152380D01*
X229678571Y-63485714D02*
X229678571Y-64152380D01*
X230107142Y-63485714D02*
X230107142Y-64009523D01*
X230059523Y-64104761D01*
X229964285Y-64152380D01*
X229821428Y-64152380D01*
X229726190Y-64104761D01*
X229678571Y-64057142D01*
X229345238Y-63485714D02*
X228964285Y-63485714D01*
X229202380Y-63152380D02*
X229202380Y-64009523D01*
X229154761Y-64104761D01*
X229059523Y-64152380D01*
X228964285Y-64152380D01*
X237309523Y-70577380D02*
X236738095Y-70577380D01*
X237023809Y-71577380D02*
X237023809Y-70577380D01*
X236404761Y-71577380D02*
X236404761Y-70577380D01*
X236166666Y-70577380D01*
X236023809Y-70625000D01*
X235928571Y-70720238D01*
X235880952Y-70815476D01*
X235833333Y-71005952D01*
X235833333Y-71148809D01*
X235880952Y-71339285D01*
X235928571Y-71434523D01*
X236023809Y-71529761D01*
X236166666Y-71577380D01*
X236404761Y-71577380D01*
X235214285Y-70577380D02*
X235023809Y-70577380D01*
X234928571Y-70625000D01*
X234833333Y-70720238D01*
X234785714Y-70910714D01*
X234785714Y-71244047D01*
X234833333Y-71434523D01*
X234928571Y-71529761D01*
X235023809Y-71577380D01*
X235214285Y-71577380D01*
X235309523Y-71529761D01*
X235404761Y-71434523D01*
X235452380Y-71244047D01*
X235452380Y-70910714D01*
X235404761Y-70720238D01*
X235309523Y-70625000D01*
X235214285Y-70577380D01*
X237023809Y-68077380D02*
X236452380Y-68077380D01*
X236738095Y-69077380D02*
X236738095Y-68077380D01*
X236119047Y-69077380D02*
X236119047Y-68077380D01*
X235880952Y-68077380D01*
X235738095Y-68125000D01*
X235642857Y-68220238D01*
X235595238Y-68315476D01*
X235547619Y-68505952D01*
X235547619Y-68648809D01*
X235595238Y-68839285D01*
X235642857Y-68934523D01*
X235738095Y-69029761D01*
X235880952Y-69077380D01*
X236119047Y-69077380D01*
X235119047Y-69077380D02*
X235119047Y-68077380D01*
X236547619Y-66577380D02*
X236880952Y-66101190D01*
X237119047Y-66577380D02*
X237119047Y-65577380D01*
X236738095Y-65577380D01*
X236642857Y-65625000D01*
X236595238Y-65672619D01*
X236547619Y-65767857D01*
X236547619Y-65910714D01*
X236595238Y-66005952D01*
X236642857Y-66053571D01*
X236738095Y-66101190D01*
X237119047Y-66101190D01*
X236166666Y-66529761D02*
X236023809Y-66577380D01*
X235785714Y-66577380D01*
X235690476Y-66529761D01*
X235642857Y-66482142D01*
X235595238Y-66386904D01*
X235595238Y-66291666D01*
X235642857Y-66196428D01*
X235690476Y-66148809D01*
X235785714Y-66101190D01*
X235976190Y-66053571D01*
X236071428Y-66005952D01*
X236119047Y-65958333D01*
X236166666Y-65863095D01*
X236166666Y-65767857D01*
X236119047Y-65672619D01*
X236071428Y-65625000D01*
X235976190Y-65577380D01*
X235738095Y-65577380D01*
X235595238Y-65625000D01*
X235309523Y-65577380D02*
X234738095Y-65577380D01*
X235023809Y-66577380D02*
X235023809Y-65577380D01*
X233684523Y-66577380D02*
X233684523Y-65577380D01*
X233113095Y-66577380D01*
X233113095Y-65577380D01*
X231922619Y-65529761D02*
X232779761Y-66815476D01*
X231017857Y-66482142D02*
X231065476Y-66529761D01*
X231208333Y-66577380D01*
X231303571Y-66577380D01*
X231446428Y-66529761D01*
X231541666Y-66434523D01*
X231589285Y-66339285D01*
X231636904Y-66148809D01*
X231636904Y-66005952D01*
X231589285Y-65815476D01*
X231541666Y-65720238D01*
X231446428Y-65625000D01*
X231303571Y-65577380D01*
X231208333Y-65577380D01*
X231065476Y-65625000D01*
X231017857Y-65672619D01*
X233684523Y-69077380D02*
X233684523Y-68077380D01*
X233113095Y-69077380D01*
X233113095Y-68077380D01*
X231922619Y-68029761D02*
X232779761Y-69315476D01*
X231017857Y-68982142D02*
X231065476Y-69029761D01*
X231208333Y-69077380D01*
X231303571Y-69077380D01*
X231446428Y-69029761D01*
X231541666Y-68934523D01*
X231589285Y-68839285D01*
X231636904Y-68648809D01*
X231636904Y-68505952D01*
X231589285Y-68315476D01*
X231541666Y-68220238D01*
X231446428Y-68125000D01*
X231303571Y-68077380D01*
X231208333Y-68077380D01*
X231065476Y-68125000D01*
X231017857Y-68172619D01*
X233136904Y-70625000D02*
X233232142Y-70577380D01*
X233375000Y-70577380D01*
X233517857Y-70625000D01*
X233613095Y-70720238D01*
X233660714Y-70815476D01*
X233708333Y-71005952D01*
X233708333Y-71148809D01*
X233660714Y-71339285D01*
X233613095Y-71434523D01*
X233517857Y-71529761D01*
X233375000Y-71577380D01*
X233279761Y-71577380D01*
X233136904Y-71529761D01*
X233089285Y-71482142D01*
X233089285Y-71148809D01*
X233279761Y-71148809D01*
X232660714Y-71577380D02*
X232660714Y-70577380D01*
X232089285Y-71577380D01*
X232089285Y-70577380D01*
X231613095Y-71577380D02*
X231613095Y-70577380D01*
X231375000Y-70577380D01*
X231232142Y-70625000D01*
X231136904Y-70720238D01*
X231089285Y-70815476D01*
X231041666Y-71005952D01*
X231041666Y-71148809D01*
X231089285Y-71339285D01*
X231136904Y-71434523D01*
X231232142Y-71529761D01*
X231375000Y-71577380D01*
X231613095Y-71577380D01*
X233136904Y-73250000D02*
X233232142Y-73202380D01*
X233375000Y-73202380D01*
X233517857Y-73250000D01*
X233613095Y-73345238D01*
X233660714Y-73440476D01*
X233708333Y-73630952D01*
X233708333Y-73773809D01*
X233660714Y-73964285D01*
X233613095Y-74059523D01*
X233517857Y-74154761D01*
X233375000Y-74202380D01*
X233279761Y-74202380D01*
X233136904Y-74154761D01*
X233089285Y-74107142D01*
X233089285Y-73773809D01*
X233279761Y-73773809D01*
X232660714Y-74202380D02*
X232660714Y-73202380D01*
X232089285Y-74202380D01*
X232089285Y-73202380D01*
X231613095Y-74202380D02*
X231613095Y-73202380D01*
X231375000Y-73202380D01*
X231232142Y-73250000D01*
X231136904Y-73345238D01*
X231089285Y-73440476D01*
X231041666Y-73630952D01*
X231041666Y-73773809D01*
X231089285Y-73964285D01*
X231136904Y-74059523D01*
X231232142Y-74154761D01*
X231375000Y-74202380D01*
X231613095Y-74202380D01*
X237285714Y-73202380D02*
X236714285Y-73202380D01*
X237000000Y-74202380D02*
X237000000Y-73202380D01*
X235809523Y-74107142D02*
X235857142Y-74154761D01*
X236000000Y-74202380D01*
X236095238Y-74202380D01*
X236238095Y-74154761D01*
X236333333Y-74059523D01*
X236380952Y-73964285D01*
X236428571Y-73773809D01*
X236428571Y-73630952D01*
X236380952Y-73440476D01*
X236333333Y-73345238D01*
X236238095Y-73250000D01*
X236095238Y-73202380D01*
X236000000Y-73202380D01*
X235857142Y-73250000D01*
X235809523Y-73297619D01*
X235380952Y-74202380D02*
X235380952Y-73202380D01*
X234809523Y-74202380D02*
X235238095Y-73630952D01*
X234809523Y-73202380D02*
X235380952Y-73773809D01*
X237333333Y-75702380D02*
X236761904Y-75702380D01*
X237047619Y-76702380D02*
X237047619Y-75702380D01*
X236428571Y-76702380D02*
X236428571Y-75702380D01*
X236095238Y-76416666D01*
X235761904Y-75702380D01*
X235761904Y-76702380D01*
X235333333Y-76654761D02*
X235190476Y-76702380D01*
X234952380Y-76702380D01*
X234857142Y-76654761D01*
X234809523Y-76607142D01*
X234761904Y-76511904D01*
X234761904Y-76416666D01*
X234809523Y-76321428D01*
X234857142Y-76273809D01*
X234952380Y-76226190D01*
X235142857Y-76178571D01*
X235238095Y-76130952D01*
X235285714Y-76083333D01*
X235333333Y-75988095D01*
X235333333Y-75892857D01*
X235285714Y-75797619D01*
X235238095Y-75750000D01*
X235142857Y-75702380D01*
X234904761Y-75702380D01*
X234761904Y-75750000D01*
X233732142Y-75702380D02*
X233398809Y-76702380D01*
X233065476Y-75702380D01*
X232732142Y-76702380D02*
X232732142Y-76035714D01*
X232732142Y-76226190D02*
X232684523Y-76130952D01*
X232636904Y-76083333D01*
X232541666Y-76035714D01*
X232446428Y-76035714D01*
X231732142Y-76654761D02*
X231827380Y-76702380D01*
X232017857Y-76702380D01*
X232113095Y-76654761D01*
X232160714Y-76559523D01*
X232160714Y-76178571D01*
X232113095Y-76083333D01*
X232017857Y-76035714D01*
X231827380Y-76035714D01*
X231732142Y-76083333D01*
X231684523Y-76178571D01*
X231684523Y-76273809D01*
X232160714Y-76369047D01*
X231398809Y-76035714D02*
X231017857Y-76035714D01*
X231255952Y-76702380D02*
X231255952Y-75845238D01*
X231208333Y-75750000D01*
X231113095Y-75702380D01*
X231017857Y-75702380D01*
X153217976Y-75482142D02*
X153265595Y-75529761D01*
X153408452Y-75577380D01*
X153503690Y-75577380D01*
X153646547Y-75529761D01*
X153741785Y-75434523D01*
X153789404Y-75339285D01*
X153837023Y-75148809D01*
X153837023Y-75005952D01*
X153789404Y-74815476D01*
X153741785Y-74720238D01*
X153646547Y-74625000D01*
X153503690Y-74577380D01*
X153408452Y-74577380D01*
X153265595Y-74625000D01*
X153217976Y-74672619D01*
X152217976Y-75482142D02*
X152265595Y-75529761D01*
X152408452Y-75577380D01*
X152503690Y-75577380D01*
X152646547Y-75529761D01*
X152741785Y-75434523D01*
X152789404Y-75339285D01*
X152837023Y-75148809D01*
X152837023Y-75005952D01*
X152789404Y-74815476D01*
X152741785Y-74720238D01*
X152646547Y-74625000D01*
X152503690Y-74577380D01*
X152408452Y-74577380D01*
X152265595Y-74625000D01*
X152217976Y-74672619D01*
X150694166Y-75053571D02*
X150551309Y-75101190D01*
X150503690Y-75148809D01*
X150456071Y-75244047D01*
X150456071Y-75386904D01*
X150503690Y-75482142D01*
X150551309Y-75529761D01*
X150646547Y-75577380D01*
X151027500Y-75577380D01*
X151027500Y-74577380D01*
X150694166Y-74577380D01*
X150598928Y-74625000D01*
X150551309Y-74672619D01*
X150503690Y-74767857D01*
X150503690Y-74863095D01*
X150551309Y-74958333D01*
X150598928Y-75005952D01*
X150694166Y-75053571D01*
X151027500Y-75053571D01*
X149837023Y-75101190D02*
X149837023Y-75577380D01*
X150170357Y-74577380D02*
X149837023Y-75101190D01*
X149503690Y-74577380D01*
X149170357Y-75196428D02*
X148408452Y-75196428D01*
X147979880Y-75529761D02*
X147837023Y-75577380D01*
X147598928Y-75577380D01*
X147503690Y-75529761D01*
X147456071Y-75482142D01*
X147408452Y-75386904D01*
X147408452Y-75291666D01*
X147456071Y-75196428D01*
X147503690Y-75148809D01*
X147598928Y-75101190D01*
X147789404Y-75053571D01*
X147884642Y-75005952D01*
X147932261Y-74958333D01*
X147979880Y-74863095D01*
X147979880Y-74767857D01*
X147932261Y-74672619D01*
X147884642Y-74625000D01*
X147789404Y-74577380D01*
X147551309Y-74577380D01*
X147408452Y-74625000D01*
X147027500Y-75291666D02*
X146551309Y-75291666D01*
X147122738Y-75577380D02*
X146789404Y-74577380D01*
X146456071Y-75577380D01*
X144932261Y-74910714D02*
X144932261Y-75577380D01*
X145170357Y-74529761D02*
X145408452Y-75244047D01*
X144789404Y-75244047D01*
X144408452Y-75482142D02*
X144360833Y-75529761D01*
X144408452Y-75577380D01*
X144456071Y-75529761D01*
X144408452Y-75482142D01*
X144408452Y-75577380D01*
X143741785Y-74577380D02*
X143646547Y-74577380D01*
X143551309Y-74625000D01*
X143503690Y-74672619D01*
X143456071Y-74767857D01*
X143408452Y-74958333D01*
X143408452Y-75196428D01*
X143456071Y-75386904D01*
X143503690Y-75482142D01*
X143551309Y-75529761D01*
X143646547Y-75577380D01*
X143741785Y-75577380D01*
X143837023Y-75529761D01*
X143884642Y-75482142D01*
X143932261Y-75386904D01*
X143979880Y-75196428D01*
X143979880Y-74958333D01*
X143932261Y-74767857D01*
X143884642Y-74672619D01*
X143837023Y-74625000D01*
X143741785Y-74577380D01*
X154057261Y-72702380D02*
X153485833Y-72702380D01*
X153771547Y-73702380D02*
X153771547Y-72702380D01*
X153152500Y-73607142D02*
X153104880Y-73654761D01*
X153152500Y-73702380D01*
X153200119Y-73654761D01*
X153152500Y-73607142D01*
X153152500Y-73702380D01*
X151914404Y-73702380D02*
X151914404Y-72702380D01*
X151581071Y-73416666D01*
X151247738Y-72702380D01*
X151247738Y-73702380D01*
X150342976Y-73035714D02*
X150342976Y-73702380D01*
X150771547Y-73035714D02*
X150771547Y-73559523D01*
X150723928Y-73654761D01*
X150628690Y-73702380D01*
X150485833Y-73702380D01*
X150390595Y-73654761D01*
X150342976Y-73607142D01*
X149914404Y-73654761D02*
X149819166Y-73702380D01*
X149628690Y-73702380D01*
X149533452Y-73654761D01*
X149485833Y-73559523D01*
X149485833Y-73511904D01*
X149533452Y-73416666D01*
X149628690Y-73369047D01*
X149771547Y-73369047D01*
X149866785Y-73321428D01*
X149914404Y-73226190D01*
X149914404Y-73178571D01*
X149866785Y-73083333D01*
X149771547Y-73035714D01*
X149628690Y-73035714D01*
X149533452Y-73083333D01*
X149057261Y-73702380D02*
X149057261Y-73035714D01*
X149057261Y-72702380D02*
X149104880Y-72750000D01*
X149057261Y-72797619D01*
X149009642Y-72750000D01*
X149057261Y-72702380D01*
X149057261Y-72797619D01*
X148152500Y-73654761D02*
X148247738Y-73702380D01*
X148438214Y-73702380D01*
X148533452Y-73654761D01*
X148581071Y-73607142D01*
X148628690Y-73511904D01*
X148628690Y-73226190D01*
X148581071Y-73130952D01*
X148533452Y-73083333D01*
X148438214Y-73035714D01*
X148247738Y-73035714D01*
X148152500Y-73083333D01*
X153342976Y-71827380D02*
X153676309Y-71351190D01*
X153914404Y-71827380D02*
X153914404Y-70827380D01*
X153533452Y-70827380D01*
X153438214Y-70875000D01*
X153390595Y-70922619D01*
X153342976Y-71017857D01*
X153342976Y-71160714D01*
X153390595Y-71255952D01*
X153438214Y-71303571D01*
X153533452Y-71351190D01*
X153914404Y-71351190D01*
X152533452Y-71779761D02*
X152628690Y-71827380D01*
X152819166Y-71827380D01*
X152914404Y-71779761D01*
X152962023Y-71684523D01*
X152962023Y-71303571D01*
X152914404Y-71208333D01*
X152819166Y-71160714D01*
X152628690Y-71160714D01*
X152533452Y-71208333D01*
X152485833Y-71303571D01*
X152485833Y-71398809D01*
X152962023Y-71494047D01*
X152152500Y-71160714D02*
X151914404Y-71827380D01*
X151676309Y-71160714D01*
X151295357Y-71827380D02*
X151295357Y-71160714D01*
X151295357Y-70827380D02*
X151342976Y-70875000D01*
X151295357Y-70922619D01*
X151247738Y-70875000D01*
X151295357Y-70827380D01*
X151295357Y-70922619D01*
X150866785Y-71779761D02*
X150771547Y-71827380D01*
X150581071Y-71827380D01*
X150485833Y-71779761D01*
X150438214Y-71684523D01*
X150438214Y-71636904D01*
X150485833Y-71541666D01*
X150581071Y-71494047D01*
X150723928Y-71494047D01*
X150819166Y-71446428D01*
X150866785Y-71351190D01*
X150866785Y-71303571D01*
X150819166Y-71208333D01*
X150723928Y-71160714D01*
X150581071Y-71160714D01*
X150485833Y-71208333D01*
X150009642Y-71827380D02*
X150009642Y-71160714D01*
X150009642Y-70827380D02*
X150057261Y-70875000D01*
X150009642Y-70922619D01*
X149962023Y-70875000D01*
X150009642Y-70827380D01*
X150009642Y-70922619D01*
X149390595Y-71827380D02*
X149485833Y-71779761D01*
X149533452Y-71732142D01*
X149581071Y-71636904D01*
X149581071Y-71351190D01*
X149533452Y-71255952D01*
X149485833Y-71208333D01*
X149390595Y-71160714D01*
X149247738Y-71160714D01*
X149152500Y-71208333D01*
X149104880Y-71255952D01*
X149057261Y-71351190D01*
X149057261Y-71636904D01*
X149104880Y-71732142D01*
X149152500Y-71779761D01*
X149247738Y-71827380D01*
X149390595Y-71827380D01*
X148628690Y-71160714D02*
X148628690Y-71827380D01*
X148628690Y-71255952D02*
X148581071Y-71208333D01*
X148485833Y-71160714D01*
X148342976Y-71160714D01*
X148247738Y-71208333D01*
X148200119Y-71303571D01*
X148200119Y-71827380D01*
X146438214Y-71827380D02*
X147009642Y-71827380D01*
X146723928Y-71827380D02*
X146723928Y-70827380D01*
X146819166Y-70970238D01*
X146914404Y-71065476D01*
X147009642Y-71113095D01*
X145247738Y-71446428D02*
X144485833Y-71446428D01*
X143057261Y-70827380D02*
X142962023Y-70827380D01*
X142866785Y-70875000D01*
X142819166Y-70922619D01*
X142771547Y-71017857D01*
X142723928Y-71208333D01*
X142723928Y-71446428D01*
X142771547Y-71636904D01*
X142819166Y-71732142D01*
X142866785Y-71779761D01*
X142962023Y-71827380D01*
X143057261Y-71827380D01*
X143152500Y-71779761D01*
X143200119Y-71732142D01*
X143247738Y-71636904D01*
X143295357Y-71446428D01*
X143295357Y-71208333D01*
X143247738Y-71017857D01*
X143200119Y-70922619D01*
X143152500Y-70875000D01*
X143057261Y-70827380D01*
X141771547Y-71827380D02*
X142342976Y-71827380D01*
X142057261Y-71827380D02*
X142057261Y-70827380D01*
X142152500Y-70970238D01*
X142247738Y-71065476D01*
X142342976Y-71113095D01*
X140628690Y-70779761D02*
X141485833Y-72065476D01*
X140342976Y-70922619D02*
X140295357Y-70875000D01*
X140200119Y-70827380D01*
X139962023Y-70827380D01*
X139866785Y-70875000D01*
X139819166Y-70922619D01*
X139771547Y-71017857D01*
X139771547Y-71113095D01*
X139819166Y-71255952D01*
X140390595Y-71827380D01*
X139771547Y-71827380D01*
X139152500Y-70827380D02*
X139057261Y-70827380D01*
X138962023Y-70875000D01*
X138914404Y-70922619D01*
X138866785Y-71017857D01*
X138819166Y-71208333D01*
X138819166Y-71446428D01*
X138866785Y-71636904D01*
X138914404Y-71732142D01*
X138962023Y-71779761D01*
X139057261Y-71827380D01*
X139152500Y-71827380D01*
X139247738Y-71779761D01*
X139295357Y-71732142D01*
X139342976Y-71636904D01*
X139390595Y-71446428D01*
X139390595Y-71208333D01*
X139342976Y-71017857D01*
X139295357Y-70922619D01*
X139247738Y-70875000D01*
X139152500Y-70827380D01*
X138438214Y-70922619D02*
X138390595Y-70875000D01*
X138295357Y-70827380D01*
X138057261Y-70827380D01*
X137962023Y-70875000D01*
X137914404Y-70922619D01*
X137866785Y-71017857D01*
X137866785Y-71113095D01*
X137914404Y-71255952D01*
X138485833Y-71827380D01*
X137866785Y-71827380D01*
X137247738Y-70827380D02*
X137152500Y-70827380D01*
X137057261Y-70875000D01*
X137009642Y-70922619D01*
X136962023Y-71017857D01*
X136914404Y-71208333D01*
X136914404Y-71446428D01*
X136962023Y-71636904D01*
X137009642Y-71732142D01*
X137057261Y-71779761D01*
X137152500Y-71827380D01*
X137247738Y-71827380D01*
X137342976Y-71779761D01*
X137390595Y-71732142D01*
X137438214Y-71636904D01*
X137485833Y-71446428D01*
X137485833Y-71208333D01*
X137438214Y-71017857D01*
X137390595Y-70922619D01*
X137342976Y-70875000D01*
X137247738Y-70827380D01*
X158025000Y-69100000D02*
X159038756Y-70115550D01*
X159240550Y-69913756D02*
G75*
G03X159675000Y-68900000I-1315550J1163756D01*
G01*
D11*
X153659285Y-67928571D02*
X153373571Y-67928571D01*
X153230714Y-68000000D01*
X153087857Y-68142857D01*
X153016428Y-68428571D01*
X153016428Y-68928571D01*
X153087857Y-69214285D01*
X153230714Y-69357142D01*
X153373571Y-69428571D01*
X153659285Y-69428571D01*
X153802143Y-69357142D01*
X153945000Y-69214285D01*
X154016428Y-68928571D01*
X154016428Y-68428571D01*
X153945000Y-68142857D01*
X153802143Y-68000000D01*
X153659285Y-67928571D01*
X152373571Y-69428571D02*
X152373571Y-68428571D01*
X152373571Y-68714285D02*
X152302143Y-68571428D01*
X152230714Y-68500000D01*
X152087857Y-68428571D01*
X151945000Y-68428571D01*
X150802143Y-69428571D02*
X150802143Y-68642857D01*
X150873571Y-68500000D01*
X151016428Y-68428571D01*
X151302143Y-68428571D01*
X151445000Y-68500000D01*
X150802143Y-69357142D02*
X150945000Y-69428571D01*
X151302143Y-69428571D01*
X151445000Y-69357142D01*
X151516428Y-69214285D01*
X151516428Y-69071428D01*
X151445000Y-68928571D01*
X151302143Y-68857142D01*
X150945000Y-68857142D01*
X150802143Y-68785714D01*
X150087857Y-68428571D02*
X150087857Y-69428571D01*
X150087857Y-68571428D02*
X150016428Y-68500000D01*
X149873571Y-68428571D01*
X149659285Y-68428571D01*
X149516428Y-68500000D01*
X149445000Y-68642857D01*
X149445000Y-69428571D01*
X148087857Y-68428571D02*
X148087857Y-69642857D01*
X148159285Y-69785714D01*
X148230714Y-69857142D01*
X148373571Y-69928571D01*
X148587857Y-69928571D01*
X148730714Y-69857142D01*
X148087857Y-69357142D02*
X148230714Y-69428571D01*
X148516428Y-69428571D01*
X148659285Y-69357142D01*
X148730714Y-69285714D01*
X148802143Y-69142857D01*
X148802143Y-68714285D01*
X148730714Y-68571428D01*
X148659285Y-68500000D01*
X148516428Y-68428571D01*
X148230714Y-68428571D01*
X148087857Y-68500000D01*
X146802143Y-69357142D02*
X146945000Y-69428571D01*
X147230714Y-69428571D01*
X147373571Y-69357142D01*
X147445000Y-69214285D01*
X147445000Y-68642857D01*
X147373571Y-68500000D01*
X147230714Y-68428571D01*
X146945000Y-68428571D01*
X146802143Y-68500000D01*
X146730714Y-68642857D01*
X146730714Y-68785714D01*
X147445000Y-68928571D01*
X144087857Y-69285714D02*
X144159285Y-69357142D01*
X144373571Y-69428571D01*
X144516428Y-69428571D01*
X144730714Y-69357142D01*
X144873571Y-69214285D01*
X144945000Y-69071428D01*
X145016428Y-68785714D01*
X145016428Y-68571428D01*
X144945000Y-68285714D01*
X144873571Y-68142857D01*
X144730714Y-68000000D01*
X144516428Y-67928571D01*
X144373571Y-67928571D01*
X144159285Y-68000000D01*
X144087857Y-68071428D01*
X143516428Y-69000000D02*
X142802143Y-69000000D01*
X143659285Y-69428571D02*
X143159285Y-67928571D01*
X142659285Y-69428571D01*
X142159285Y-69428571D02*
X142159285Y-67928571D01*
X141302143Y-69428571D01*
X141302143Y-67928571D01*
X138945000Y-68642857D02*
X138730714Y-68714285D01*
X138659285Y-68785714D01*
X138587857Y-68928571D01*
X138587857Y-69142857D01*
X138659285Y-69285714D01*
X138730714Y-69357142D01*
X138873571Y-69428571D01*
X139445000Y-69428571D01*
X139445000Y-67928571D01*
X138945000Y-67928571D01*
X138802143Y-68000000D01*
X138730714Y-68071428D01*
X138659285Y-68214285D01*
X138659285Y-68357142D01*
X138730714Y-68500000D01*
X138802143Y-68571428D01*
X138945000Y-68642857D01*
X139445000Y-68642857D01*
X137945000Y-69428571D02*
X137945000Y-68428571D01*
X137945000Y-68714285D02*
X137873571Y-68571428D01*
X137802143Y-68500000D01*
X137659285Y-68428571D01*
X137516428Y-68428571D01*
X136445000Y-69357142D02*
X136587857Y-69428571D01*
X136873571Y-69428571D01*
X137016428Y-69357142D01*
X137087857Y-69214285D01*
X137087857Y-68642857D01*
X137016428Y-68500000D01*
X136873571Y-68428571D01*
X136587857Y-68428571D01*
X136445000Y-68500000D01*
X136373571Y-68642857D01*
X136373571Y-68785714D01*
X137087857Y-68928571D01*
X135087857Y-69428571D02*
X135087857Y-68642857D01*
X135159285Y-68500000D01*
X135302143Y-68428571D01*
X135587857Y-68428571D01*
X135730714Y-68500000D01*
X135087857Y-69357142D02*
X135230714Y-69428571D01*
X135587857Y-69428571D01*
X135730714Y-69357142D01*
X135802143Y-69214285D01*
X135802143Y-69071428D01*
X135730714Y-68928571D01*
X135587857Y-68857142D01*
X135230714Y-68857142D01*
X135087857Y-68785714D01*
X134373571Y-69428571D02*
X134373571Y-67928571D01*
X134230714Y-68857142D02*
X133802143Y-69428571D01*
X133802143Y-68428571D02*
X134373571Y-69000000D01*
X132945000Y-69428571D02*
X133087857Y-69357142D01*
X133159285Y-69285714D01*
X133230714Y-69142857D01*
X133230714Y-68714285D01*
X133159285Y-68571428D01*
X133087857Y-68500000D01*
X132945000Y-68428571D01*
X132730714Y-68428571D01*
X132587857Y-68500000D01*
X132516428Y-68571428D01*
X132445000Y-68714285D01*
X132445000Y-69142857D01*
X132516428Y-69285714D01*
X132587857Y-69357142D01*
X132730714Y-69428571D01*
X132945000Y-69428571D01*
X131159285Y-68428571D02*
X131159285Y-69428571D01*
X131802143Y-68428571D02*
X131802143Y-69214285D01*
X131730714Y-69357142D01*
X131587857Y-69428571D01*
X131373571Y-69428571D01*
X131230714Y-69357142D01*
X131159285Y-69285714D01*
X130659285Y-68428571D02*
X130087857Y-68428571D01*
X130445000Y-67928571D02*
X130445000Y-69214285D01*
X130373571Y-69357142D01*
X130230714Y-69428571D01*
X130087857Y-69428571D01*
D10*
X158225000Y-68600000D02*
X159240550Y-67586244D01*
X159088756Y-67384450D02*
G75*
G03X158075000Y-66950000I-1163756J-1315550D01*
G01*
X156075002Y-68900000D02*
G75*
G03X156509451Y-69913755I1749998J150000D01*
G01*
X156711244Y-70115550D02*
G75*
G03X157725000Y-70550000I1163756J1315550D01*
G01*
X157725000Y-69100000D02*
X156711244Y-70115550D01*
X159925000Y-68750000D02*
G75*
G03X159925000Y-68750000I-2050000J0D01*
G01*
X157525000Y-68900000D02*
X156509450Y-69913756D01*
X156075000Y-68900000D02*
X157525000Y-68900000D01*
X156075000Y-68600000D02*
X157525000Y-68600000D01*
X157525000Y-68600000D02*
X156509450Y-67586244D01*
X158225000Y-68900000D02*
X159240550Y-69913756D01*
X158025000Y-70550000D02*
X158025000Y-69100000D01*
X157725000Y-70550000D02*
X157725000Y-69100000D01*
X158075000Y-68400000D02*
X159088756Y-67384450D01*
X159675000Y-68600000D02*
X158225000Y-68600000D01*
X159674998Y-68600000D02*
G75*
G03X159240549Y-67586245I-1749998J-150000D01*
G01*
X158075000Y-66950000D02*
X158075000Y-68400000D01*
X157775000Y-68400000D02*
X156761244Y-67384450D01*
X157775000Y-66950002D02*
G75*
G03X156761245Y-67384451I150000J-1749998D01*
G01*
X158025000Y-70549998D02*
G75*
G03X159038755Y-70115549I-150000J1749998D01*
G01*
X159675000Y-68900000D02*
X158225000Y-68900000D01*
X156509450Y-67586244D02*
G75*
G03X156075000Y-68600000I1315550J-1163756D01*
G01*
X157775000Y-66950000D02*
X157775000Y-68400000D01*
X122125000Y-53000000D02*
X122125000Y-58000000D01*
X122125000Y-58000000D02*
X130125000Y-58000000D01*
X130125000Y-58000000D02*
X130125000Y-53000000D01*
X222452380Y-57232142D02*
X221976190Y-56898809D01*
X222452380Y-56660714D02*
X221452380Y-56660714D01*
X221452380Y-57041666D01*
X221500000Y-57136904D01*
X221547619Y-57184523D01*
X221642857Y-57232142D01*
X221785714Y-57232142D01*
X221880952Y-57184523D01*
X221928571Y-57136904D01*
X221976190Y-57041666D01*
X221976190Y-56660714D01*
X221452380Y-58089285D02*
X221452380Y-57898809D01*
X221500000Y-57803571D01*
X221547619Y-57755952D01*
X221690476Y-57660714D01*
X221880952Y-57613095D01*
X222261904Y-57613095D01*
X222357142Y-57660714D01*
X222404761Y-57708333D01*
X222452380Y-57803571D01*
X222452380Y-57994047D01*
X222404761Y-58089285D01*
X222357142Y-58136904D01*
X222261904Y-58184523D01*
X222023809Y-58184523D01*
X221928571Y-58136904D01*
X221880952Y-58089285D01*
X221833333Y-57994047D01*
X221833333Y-57803571D01*
X221880952Y-57708333D01*
X221928571Y-57660714D01*
X222023809Y-57613095D01*
X221785714Y-59041666D02*
X222452380Y-59041666D01*
X221404761Y-58803571D02*
X222119047Y-58565476D01*
X222119047Y-59184523D01*
X217577380Y-56660714D02*
X216577380Y-56660714D01*
X216577380Y-56898809D01*
X216625000Y-57041666D01*
X216720238Y-57136904D01*
X216815476Y-57184523D01*
X217005952Y-57232142D01*
X217148809Y-57232142D01*
X217339285Y-57184523D01*
X217434523Y-57136904D01*
X217529761Y-57041666D01*
X217577380Y-56898809D01*
X217577380Y-56660714D01*
X217577380Y-58184523D02*
X217577380Y-57613095D01*
X217577380Y-57898809D02*
X216577380Y-57898809D01*
X216720238Y-57803571D01*
X216815476Y-57708333D01*
X216863095Y-57613095D01*
X216577380Y-58803571D02*
X216577380Y-58898809D01*
X216625000Y-58994047D01*
X216672619Y-59041666D01*
X216767857Y-59089285D01*
X216958333Y-59136904D01*
X217196428Y-59136904D01*
X217386904Y-59089285D01*
X217482142Y-59041666D01*
X217529761Y-58994047D01*
X217577380Y-58898809D01*
X217577380Y-58803571D01*
X217529761Y-58708333D01*
X217482142Y-58660714D01*
X217386904Y-58613095D01*
X217196428Y-58565476D01*
X216958333Y-58565476D01*
X216767857Y-58613095D01*
X216672619Y-58660714D01*
X216625000Y-58708333D01*
X216577380Y-58803571D01*
X224077380Y-57136904D02*
X223077380Y-57136904D01*
X223077380Y-57375000D01*
X223125000Y-57517857D01*
X223220238Y-57613095D01*
X223315476Y-57660714D01*
X223505952Y-57708333D01*
X223648809Y-57708333D01*
X223839285Y-57660714D01*
X223934523Y-57613095D01*
X224029761Y-57517857D01*
X224077380Y-57375000D01*
X224077380Y-57136904D01*
X223077380Y-58041666D02*
X223077380Y-58708333D01*
X224077380Y-58279761D01*
X220827380Y-57136904D02*
X219827380Y-57136904D01*
X219827380Y-57375000D01*
X219875000Y-57517857D01*
X219970238Y-57613095D01*
X220065476Y-57660714D01*
X220255952Y-57708333D01*
X220398809Y-57708333D01*
X220589285Y-57660714D01*
X220684523Y-57613095D01*
X220779761Y-57517857D01*
X220827380Y-57375000D01*
X220827380Y-57136904D01*
X219827380Y-58565476D02*
X219827380Y-58375000D01*
X219875000Y-58279761D01*
X219922619Y-58232142D01*
X220065476Y-58136904D01*
X220255952Y-58089285D01*
X220636904Y-58089285D01*
X220732142Y-58136904D01*
X220779761Y-58184523D01*
X220827380Y-58279761D01*
X220827380Y-58470238D01*
X220779761Y-58565476D01*
X220732142Y-58613095D01*
X220636904Y-58660714D01*
X220398809Y-58660714D01*
X220303571Y-58613095D01*
X220255952Y-58565476D01*
X220208333Y-58470238D01*
X220208333Y-58279761D01*
X220255952Y-58184523D01*
X220303571Y-58136904D01*
X220398809Y-58089285D01*
X227327380Y-57136904D02*
X226327380Y-57136904D01*
X226327380Y-57375000D01*
X226375000Y-57517857D01*
X226470238Y-57613095D01*
X226565476Y-57660714D01*
X226755952Y-57708333D01*
X226898809Y-57708333D01*
X227089285Y-57660714D01*
X227184523Y-57613095D01*
X227279761Y-57517857D01*
X227327380Y-57375000D01*
X227327380Y-57136904D01*
X226327380Y-58613095D02*
X226327380Y-58136904D01*
X226803571Y-58089285D01*
X226755952Y-58136904D01*
X226708333Y-58232142D01*
X226708333Y-58470238D01*
X226755952Y-58565476D01*
X226803571Y-58613095D01*
X226898809Y-58660714D01*
X227136904Y-58660714D01*
X227232142Y-58613095D01*
X227279761Y-58565476D01*
X227327380Y-58470238D01*
X227327380Y-58232142D01*
X227279761Y-58136904D01*
X227232142Y-58089285D01*
M02*
