M48
; DRILL file {KiCad 5.1.5} date Sa 11 Jan 2020 17:39:45 CET
; FORMAT={-:-/ absolute / metric / decimal}
; #@! TF.CreationDate,2020-01-11T17:39:45+01:00
; #@! TF.GenerationSoftware,Kicad,Pcbnew,5.1.5
; #@! TF.FileFunction,Plated,1,2,PTH
FMAT,2
METRIC
T1C0.300
T2C0.600
T3C0.650
T4C0.800
T5C1.000
T6C1.100
T7C1.300
T8C1.500
T9C3.200
%
G90
G05
T1
X109.875Y-63.5
X109.875Y-71.5
X109.875Y-78.5
X117.375Y-66.125
X117.375Y-67.0
X117.375Y-75.875
X117.375Y-76.75
X118.25Y-66.125
X118.25Y-67.0
X118.25Y-75.875
X118.25Y-76.75
X119.125Y-66.125
X119.125Y-67.0
X119.125Y-75.875
X119.125Y-76.75
X119.375Y-72.875
X119.875Y-70.625
X119.875Y-71.875
X120.0Y-81.5
X120.75Y-53.25
X120.875Y-72.5
X121.375Y-97.125
X122.0Y-78.0
X123.0Y-78.0
X123.625Y-55.0
X126.5Y-75.5
X126.5Y-78.0
X126.5Y-79.0
X128.625Y-55.0
X129.0Y-67.875
X129.0Y-72.875
X129.0Y-81.875
X132.125Y-53.125
X151.625Y-56.25
X163.125Y-67.875
X164.0Y-67.875
X165.5Y-67.875
X165.5Y-69.75
X169.75Y-60.875
X169.75Y-64.625
X171.125Y-53.0
X171.125Y-56.5
X171.125Y-60.0
X172.5Y-72.0
X172.625Y-62.5
X172.875Y-83.5
X172.875Y-101.875
X173.75Y-65.375
X174.5Y-60.0
X175.5Y-65.375
X175.5Y-70.5
X175.625Y-63.5
X177.0Y-60.0
X177.375Y-55.606
X177.375Y-56.5
X178.375Y-70.375
X178.375Y-72.0
X178.875Y-59.5
X179.5Y-62.625
X179.75Y-59.5
X180.5Y-75.125
X180.75Y-61.375
X182.875Y-53.0
X182.875Y-57.75
X184.0Y-61.375
X185.0Y-61.375
X186.0Y-58.375
X187.125Y-70.375
X188.0Y-58.375
X188.0Y-87.25
X188.0Y-88.25
X188.5Y-92.25
X189.25Y-66.125
X189.75Y-68.75
X190.75Y-60.25
X190.75Y-64.75
X190.75Y-84.375
X190.75Y-87.25
X190.75Y-88.25
X190.75Y-92.25
X192.75Y-67.375
X193.125Y-99.125
X193.25Y-103.25
X193.5Y-74.25
X193.625Y-66.875
X194.125Y-69.0
X194.25Y-87.75
X194.375Y-103.25
X194.75Y-58.75
X194.75Y-60.25
X194.875Y-70.625
X195.625Y-66.875
X195.625Y-68.0
X197.0Y-97.25
X197.0Y-107.875
X197.25Y-82.25
X197.25Y-87.75
X197.25Y-89.375
X197.25Y-92.25
X197.5Y-75.875
X198.625Y-106.375
X199.125Y-53.0
X199.25Y-56.25
X199.75Y-79.25
X199.75Y-82.25
X200.0Y-65.625
X200.0Y-67.125
X200.0Y-74.5
X200.25Y-56.25
X201.375Y-68.625
X201.375Y-97.25
X202.625Y-88.625
X202.75Y-68.75
X202.875Y-104.375
X203.0Y-55.625
X203.25Y-66.375
X203.375Y-58.125
X203.625Y-86.5
X203.625Y-101.875
X203.875Y-75.275
X203.875Y-79.5
X204.375Y-68.75
X204.375Y-69.75
X204.375Y-106.5
X204.375Y-111.25
X204.875Y-56.25
X205.875Y-83.5
X205.875Y-92.25
X205.875Y-99.0
X205.875Y-102.25
X206.0Y-66.25
X206.0Y-74.5
X207.25Y-60.25
X207.625Y-76.375
X207.625Y-78.625
X207.75Y-56.25
X208.375Y-81.75
X208.375Y-97.25
X208.625Y-56.25
X209.875Y-65.375
X210.125Y-60.25
X210.125Y-66.875
X210.125Y-68.0
X210.25Y-85.125
X210.25Y-98.625
X210.625Y-53.0
X210.625Y-55.25
X211.0Y-60.25
X211.125Y-86.375
X211.125Y-92.25
X211.125Y-101.875
X211.125Y-105.625
X211.375Y-81.875
X211.625Y-58.0
X212.75Y-97.625
X213.04Y-73.79
X213.125Y-57.5
X213.125Y-59.0
X213.75Y-61.625
X215.375Y-58.375
X215.875Y-82.125
X217.0Y-71.25
X217.0Y-72.5
X218.25Y-90.5
X218.25Y-96.5
X219.125Y-58.375
X221.125Y-68.75
X221.125Y-75.375
X222.5Y-87.125
X222.5Y-102.625
X223.75Y-68.75
X223.75Y-75.375
X226.375Y-85.75
X226.375Y-101.25
X227.25Y-62.375
X227.25Y-79.125
T3
X221.73Y-104.0
X223.0Y-104.0
X221.75Y-83.0
X223.02Y-83.0
X221.73Y-88.5
X223.0Y-88.5
X221.75Y-98.5
X223.02Y-98.5
X215.73Y-78.125
X217.0Y-78.125
X218.27Y-78.125
T4
X124.9Y-78.0
X179.5Y-88.25
X181.5Y-88.25
X179.5Y-84.25
X181.5Y-84.25
X216.0Y-65.125
X218.0Y-65.125
X216.0Y-62.5
X218.0Y-62.5
X179.5Y-100.25
X181.5Y-100.25
X179.5Y-96.25
X181.5Y-96.25
X179.5Y-108.25
X181.5Y-108.25
X179.5Y-104.25
X181.5Y-104.25
X179.5Y-92.25
X181.5Y-92.25
T5
X181.25Y-64.5
X181.25Y-68.5
X185.25Y-64.5
X185.25Y-68.5
X142.5Y-56.25
X145.04Y-56.25
X147.58Y-56.25
X226.0Y-66.09
X226.0Y-68.63
X226.0Y-71.17
X226.0Y-73.71
X226.0Y-76.25
X228.54Y-66.09
X228.54Y-68.63
X228.54Y-71.17
X228.54Y-73.71
X228.54Y-76.25
X129.982Y-63.198
X129.982Y-103.991
X129.982Y-106.531
X132.522Y-63.198
X132.522Y-103.991
X132.522Y-106.531
X135.062Y-63.198
X135.062Y-103.991
X135.062Y-106.531
X137.602Y-63.198
X137.602Y-103.991
X137.602Y-106.531
X140.142Y-63.198
X140.142Y-103.991
X140.142Y-106.531
X142.682Y-63.198
X142.682Y-103.991
X142.682Y-106.531
X145.222Y-63.198
X145.222Y-103.991
X145.222Y-106.531
X147.762Y-63.198
X147.762Y-103.991
X147.762Y-106.531
X150.302Y-63.198
X150.302Y-103.991
X150.302Y-106.531
X152.842Y-63.198
X152.842Y-103.991
X152.842Y-106.531
X155.382Y-63.198
X155.382Y-103.991
X155.382Y-106.531
X155.991Y-101.451
X157.922Y-63.198
X157.922Y-103.991
X157.922Y-106.531
X158.531Y-101.451
X160.462Y-63.198
X160.462Y-103.991
X160.462Y-106.531
X161.071Y-101.451
X155.67Y-56.25
X158.21Y-56.25
X160.75Y-56.25
T6
X118.75Y-95.75
X118.75Y-97.75
T7
X234.375Y-99.325
X234.375Y-103.135
X234.375Y-83.825
X234.375Y-87.635
T8
X183.25Y-66.5
X118.75Y-93.25
X118.75Y-100.25
T9
X233.75Y-112.25
X233.75Y-57.25
X113.75Y-112.25
X113.75Y-57.25
T2
G00X111.65Y-67.18
M15
G01X111.05Y-67.18
M16
G05
G00X111.65Y-75.82
M15
G01X111.05Y-75.82
M16
G05
G00X116.08Y-67.18
M15
G01X114.98Y-67.18
M16
G05
G00X116.08Y-75.82
M15
G01X114.98Y-75.82
M16
G05
T4
G00X112.15Y-90.35
M15
G01X110.95Y-90.35
M16
G05
G00X112.15Y-103.15
M15
G01X110.95Y-103.15
M16
G05
T0
M30
